<?xml version="1.0" standalone="no"?>
<!DOCTYPE svg PUBLIC "-//W3C//DTD SVG 20010904//EN"
 "http://www.w3.org/TR/2001/REC-SVG-20010904/DTD/svg10.dtd">
<svg version="1.0" xmlns="http://www.w3.org/2000/svg"
 width="169.000000pt" height="166.000000pt" viewBox="0 0 169.000000 166.000000"
 preserveAspectRatio="xMidYMid meet">
<metadata>
Created by potrace 1.16, written by Peter Selinger 2001-2019
</metadata>
<g transform="translate(0.000000,166.000000) scale(0.100000,-0.100000)"
fill="#000000" stroke="none">
<path d="M320 840 l0 -570 610 0 610 0 0 570 0 570 -220 0 -220 0 0 -370 0
-370 -170 0 -170 0 0 370 0 370 -220 0 -220 0 0 -570z m390 150 l0 -370 220 0
220 0 0 370 0 370 170 0 170 0 0 -520 0 -520 -560 0 -560 0 0 520 0 520 170 0
170 0 0 -370z"/>
</g>
</svg>
